<?xml version="1.0" encoding="utf-8"?>
<!-- Generator: Adobe Illustrator 19.0.0, SVG Export Plug-In . SVG Version: 6.00 Build 0)  -->
<svg version="1.1" id="Layer_1" xmlns="http://www.w3.org/2000/svg" xmlns:xlink="http://www.w3.org/1999/xlink" x="0px" y="0px"
	 viewBox="0 0 137.2 61.1" style="enable-background:new 0 0 137.2 61.1;" xml:space="preserve">
<style type="text/css">
	.st0{fill:#0000FF;}
	.st1{fill:#FFFFFF;}
	.st2{fill:none;}
	.st3{stroke:#FFFFFF;stroke-miterlimit:10;}
	.st4{font-family:'CourierNewPSMT';}
	.st5{font-size:11.6886px;}
	.st6{fill:#FFFFFF;stroke:#FFFFFF;stroke-width:2;stroke-miterlimit:10;}
	.st7{font-size:18.994px;}
	.st8{fill:none;stroke:#FFFFFF;stroke-width:2;stroke-miterlimit:10;}
</style>
<g id="XMLID_1_">
	<circle id="XMLID_2_" class="st0" cx="30.6" cy="30.6" r="30.6"/>
	<circle id="XMLID_5_" class="st1" cx="30.6" cy="30.6" r="24.7"/>
	<path id="XMLID_20_" class="st0" d="M60.5,36.8l9.8,4.6c0,0,0.1,0,0.1,0.1l8.5,3l6.8-10.2l6.5,7.1l2.1-4.9c0.5-1.2,1.9-1.6,3-0.9
		l9.7,6.1l3.4-7.2l2.2,6.1c0.3,0.9,1.2,1.5,2.1,1.5l1.9-0.1l0.6-0.4l3.7-7.4l5.4,8.5l10.8-15.5c0.5-0.7,0.3-1.7-0.5-2.2l-9.9-6
		c-0.2-0.1-0.5-0.2-0.8-0.2H58.2"/>
	<rect id="XMLID_21_" x="63.3" y="21.6" class="st2" width="57.5" height="8.5"/>
	<text id="XMLID_22_" transform="matrix(1 0 0 1 63.3132 28.716)" class="st3 st4 st5">MEHANIKA </text>
	<path id="XMLID_23_" class="st0" d="M10.1,30.6c0-11.3,9.2-20.5,20.5-20.5c7.6,0,14.6,4.5,18,10.7c0.7,1.2,2.6,4.9,2.5,9.7
		C50.7,39.5,43.1,51,30.6,51C19.3,51,10.1,41.9,10.1,30.6z"/>
	<path id="XMLID_26_" class="st2" d="M52.8,17.3"/>
	<path id="XMLID_25_" class="st2" d="M65.4-7.2"/>
	<path id="XMLID_24_" class="st2" d="M63.4-8.4"/>
	<rect id="XMLID_7_" x="10.1" y="24.9" class="st2" width="40.9" height="12"/>
	<text id="XMLID_8_" transform="matrix(1 0 0 1 13.4699 36.5714)" class="st6 st4 st7">037</text>
	<line id="XMLID_3_" class="st8" x1="62.7" y1="32.1" x2="120.7" y2="32.1"/>
</g>
</svg>
